<svg width="16" height="16" viewBox="0 0 16 16" xmlns="http://www.w3.org/2000/svg"><title>Rectangle 1</title><desc>Created with Sketch.</desc><g fill="none" fill-rule="evenodd"><g fill="#999"><path d="M11.857 9.862l4.14 4.14-2 2-4.145-4.145c-.99.624-2.165.985-3.423.985-3.552 0-6.43-2.875-6.43-6.42C0 2.874 2.878 0 6.43 0c3.55 0 6.428 2.875 6.428 6.42 0 1.267-.367 2.447-1 3.442zm-5.428.41c2.13 0 3.856-1.724 3.856-3.85 0-2.13-1.727-3.854-3.857-3.854S2.57 4.293 2.57 6.42 4.3 10.274 6.43 10.274z"/></g></g></svg>